<svg xmlns="http://www.w3.org/2000/svg" width="1100" height="620" viewBox="0 0 1100 620" role="img" aria-label="Illustration tech IA">
  <defs>
    <linearGradient id="g1" x1="0" y1="0" x2="1" y2="1">
      <stop offset="0%" stop-color="#4f46e5"/>
      <stop offset="100%" stop-color="#7c3aed"/>
    </linearGradient>
    <radialGradient id="g2" cx="70%" cy="20%" r="60%">
      <stop offset="0%" stop-color="rgba(124,58,237,.35)"/>
      <stop offset="100%" stop-color="rgba(124,58,237,0)"/>
    </radialGradient>
    <radialGradient id="g3" cx="20%" cy="80%" r="55%">
      <stop offset="0%" stop-color="rgba(79,70,229,.35)"/>
      <stop offset="100%" stop-color="rgba(79,70,229,0)"/>
    </radialGradient>
  </defs>
  <rect width="1100" height="620" rx="24" fill="#ffffff"/>
  <g opacity=".9">
    <circle cx="850" cy="60" r="420" fill="url(#g2)"/>
    <circle cx="120" cy="520" r="380" fill="url(#g3)"/>
  </g>
  <g transform="translate(60,80)">
    <rect x="0" y="0" width="520" height="340" rx="18" fill="url(#g1)" opacity=".1" stroke="#e5e7eb"/>
    <g fill="none" stroke="url(#g1)" stroke-width="2">
      <path d="M10 60h500M10 120h500M10 180h500M10 240h500M10 300h500" opacity=".35"/>
      <path d="M80 20v320M200 20v320M320 20v320M440 20v320" opacity=".35"/>
    </g>
    <g transform="translate(560,0)">
      <rect x="0" y="0" width="380" height="220" rx="18" fill="url(#g1)" opacity=".12" stroke="#e5e7eb"/>
      <circle cx="60" cy="60" r="28" fill="none" stroke="url(#g1)" stroke-width="3"/>
      <path d="M60 42v36M42 60h36" stroke="url(#g1)" stroke-width="3"/>
      <rect x="0" y="240" width="380" height="100" rx="14" fill="#fff" stroke="#e5e7eb"/>
      <path d="M20 290h180" stroke="#c7d2fe" stroke-width="6" stroke-linecap="round"/>
      <path d="M20 265h300" stroke="#ddd6fe" stroke-width="6" stroke-linecap="round"/>
    </g>
  </g>
</svg>
